<svg xmlns="http://www.w3.org/2000/svg" width="84" height="75"><g><defs><linearGradient id="idnrA8Kqfmfg-1519350362" x1="0.98408362421604" x2="0.015916375783960046" y1="1" y2="0"><stop offset="0" stop-color="rgba(219,174,174,0)" stop-opacity="0"></stop><stop offset="1" stop-color="rgb(90,55,102)" stop-opacity="1"></stop></linearGradient></defs><path d="M 31.865 58.505 C 20.469 58.712 11.063 49.642 10.856 38.247 C 10.649 26.852 19.718 17.446 31.114 17.238 C 42.509 17.031 51.915 26.101 52.122 37.496 C 52.33 48.891 43.26 58.297 31.865 58.505 Z" fill="url(#idnrA8Kqfmfg-1519350362)"></path></g><g transform="translate(31.584 16.857)"><g><defs><linearGradient id="idIfU8IPBNdg1519350496" x1="0.1652303516707458" x2="0.8347696483292542" y1="5.551115123125783e-17" y2="1"><stop offset="0" stop-color="rgba(219,174,174,0)" stop-opacity="0"></stop><stop offset="1" stop-color="rgb(90,55,102)" stop-opacity="1"></stop></linearGradient></defs><path d="M 21.012 41.27 C 32.407 41.062 41.477 31.656 41.27 20.261 C 41.062 8.866 31.656 -0.204 20.261 0.003 C 8.866 0.211 -0.204 9.617 0.003 21.012 C 0.211 32.407 9.617 41.477 21.012 41.27 Z" fill="url(#idIfU8IPBNdg1519350496)"></path></g></g></svg>